<svg id="Capa_1" enable-background="new 0 0 512 512" height="512" viewBox="0 0 512 512" width="512" xmlns="http://www.w3.org/2000/svg"><g><g><g><path d="m407 361.965c-8.291 0-15-6.709-15-15s6.709-15 15-15c24.814 0 45-20.186 45-45v-60c0-8.291 6.709-15 15-15s15 6.709 15 15v60c0 41.353-33.633 75-75 75z" fill="#00a66c"/></g></g><g><path d="m347 331.965c-41.367 0-75-33.647-75-75v-60c0-8.291 6.709-15 15-15s15 6.709 15 15v60c0 24.814 20.186 45 45 45 8.291 0 15 6.709 15 15s-6.709 15-15 15z" fill="#59c36a"/></g><g><path d="m332 409.66v-242.695c0-24.814 20.186-45 45-45s45 20.186 45 45v240c0 8.291-6.709 15-15 15-21.152 0-40.313.864-58.564 2.622-8.997.844-16.436-6.245-16.436-14.927z" fill="#59c36a"/></g><path d="m407 421.965c8.291 0 15-6.709 15-15v-240c0-24.814-20.186-45-45-45v300.637c9.603-.424 19.557-.637 30-.637z" fill="#00a66c"/><g><path d="m15 511.965c-8.291 0-15-6.709-15-15v-90c0-5.684 3.223-10.869 8.291-13.418 125.303-62.651 248.232-2.563 253.418 0l24.961 12.627c5.684 2.871 8.936 9.023 8.115 15.322-.82 6.313-5.537 11.426-11.777 12.744-49.57 10.503-87.334 26.001-123.867 41.001-45.996 18.882-89.444 36.724-144.141 36.724z" fill="#fb3"/></g><g id="Arizona_Desert_2_"><g><path d="m196.816 73.219c-5.859-5.859-5.859-15.352 0-21.211l21.182-21.182c5.859-5.859 15.352-5.859 21.211 0s5.859 15.352 0 21.211l-21.182 21.182c-5.859 5.859-15.351 5.859-21.211 0z" fill="#fb3"/></g><g><path d="m165 210.035c-8.291 0-15-6.709-15-15v-30c0-8.291 6.709-15 15-15s15 6.709 15 15v30c0 8.291-6.709 15-15 15z" fill="#ffe14d"/></g><g><path d="m217.998 179.259-21.182-21.196c-5.859-5.859-5.859-15.366 0-21.211 5.859-5.859 15.352-5.859 21.211 0l21.182 21.196c5.859 5.859 5.859 15.366 0 21.211-5.859 5.859-15.351 5.859-21.211 0z" fill="#fb3"/></g><g><path d="m105 120.035h-30c-8.291 0-15-6.709-15-15s6.709-15 15-15h30c8.291 0 15 6.709 15 15s-6.709 15-15 15z" fill="#ffe14d"/></g><g><path d="m165 60.035c-8.291 0-15-6.709-15-15v-30c0-8.291 6.709-15 15-15s15 6.709 15 15v30c0 8.291-6.709 15-15 15z" fill="#ffe14d"/></g><g><path d="m111.973 73.219-21.182-21.182c-5.859-5.859-5.859-15.352 0-21.211s15.352-5.859 21.211 0l21.182 21.182c5.859 5.859 5.859 15.352 0 21.211-5.86 5.859-15.352 5.859-21.211 0z" fill="#ffe14d"/></g><g><path d="m255 120.035h-30c-8.291 0-15-6.709-15-15s6.709-15 15-15h30c8.291 0 15 6.709 15 15s-6.709 15-15 15z" fill="#fb3"/></g><g><path d="m90.791 179.259c-5.859-5.845-5.859-15.352 0-21.211l21.182-21.196c5.859-5.859 15.352-5.859 21.211 0 5.859 5.845 5.859 15.352 0 21.211l-21.182 21.196c-5.859 5.859-15.351 5.859-21.211 0z" fill="#ffe14d"/></g></g><g><path d="m180 195.035v-30c0-8.291-6.709-15-15-15v60c8.291 0 15-6.709 15-15z" fill="#fb3"/><path d="m180 45.035v-30c0-8.291-6.709-15-15-15v60c8.291 0 15-6.709 15-15z" fill="#fb3"/><path d="m283.008 434.24c6.24-1.318 10.957-6.431 11.777-12.744.82-6.299-2.432-12.451-8.115-15.322l-24.961-12.627c-.613-.304-2.992-1.454-6.709-3.069v50.722c9.025-2.446 18.127-4.867 28.008-6.96z" fill="#e68a2e"/></g><g><path d="m507.61 426.355c-1.41-1.4-35.16-34.39-100.61-34.39-22.15 0-42.25.91-61.32 2.75-24.14 2.16-48.7 5.58-68.88 10.17-7.5 1.59-14.76 3.3-21.8 5.1-42.05 10.74-76.41 24.84-107.23 37.5-45.08 18.5-83.99 34.48-132.77 34.48-8.29 0-15 6.71-15 15s6.71 15 15 15h482c8.29 0 15-6.71 15-15v-60c0-3.98-1.58-7.79-4.39-10.61z" fill="#ffe14d"/></g><path d="m512 436.965v60c0 8.29-6.71 15-15 15h-242v-101.98c7.04-1.8 14.3-3.51 21.8-5.1 20.18-4.59 44.74-8.01 68.88-10.17 19.07-1.84 39.17-2.75 61.32-2.75 65.45 0 99.2 32.99 100.61 34.39 2.81 2.82 4.39 6.63 4.39 10.61z" fill="#fb3"/><g><path d="m165 180.035c-41.367 0-75-33.647-75-75s33.633-75 75-75 75 33.647 75 75-33.633 75-75 75z" fill="#ffe14d"/></g><path d="m240 105.035c0-41.353-33.633-75-75-75v150c41.367 0 75-33.647 75-75z" fill="#fb3"/></g></svg>