<?xml version="1.0" encoding="iso-8859-1"?>
<!-- Generator: Adobe Illustrator 19.0.0, SVG Export Plug-In . SVG Version: 6.00 Build 0)  -->
<svg version="1.1" id="Capa_1" xmlns="http://www.w3.org/2000/svg" xmlns:xlink="http://www.w3.org/1999/xlink" x="0px" y="0px"
	 viewBox="0 0 511.999 511.999" style="enable-background:new 0 0 511.999 511.999;" xml:space="preserve">
<path style="fill:#74DEDA;" d="M247.61,119.658l-50.475-2.118l-44.827-7.766l-19.061-9.177l-20.472,10.589l-24.002,14.472
	l-27.885,6.706l-10.236,21.531l-0.706,22.943l7.413,8.118l-22.59,20.119l-6.354,26.473l7.766,21.531l18.354,13.06l23.296-1.059
	h16.942l13.413,7.766l18.354-7.413l17.648-16.236l1.765-27.179l3.53-8.118l22.943-2.824l11.648-7.766l11.648-12.707l6-16.942
	l27.885,3.177l22.237-13.766l1.765-5.294l13.766,8.824l22.943,4.941l18.001-1.059l8.824-6l12.707,10.236l18.708,10.236l10.942,1.059
	l-6.707,24.708l7.412,16.943l8.119,13.766l-1.059,14.825l15.531,12.354l20.472,1.765l25.767-7.06l45.533-26.473l6.707-22.237
	l-1.765-21.178l-11.648-12.707l-7.413-3.177l1.765-24.708l-7.766-19.414l-13.413-9.177l-21.531-1.765c0,0-8.119-3.53-8.824-4.589
	c-0.706-1.059-13.766-16.942-13.766-16.942l-23.296-4.236l-13.06,6l-25.061,11.295l-43.415,4.941L247.61,119.658z"/>
<path style="fill:#FFECD4;" d="M361.028,184.324c-9.768,3.25-22.43,0.419-29.542-7.063c-2.998-3.153-4.623-8.394-8.021-10.892
	c-4.03-2.963-6.44,1.623-10.052,3.424c-20.948,10.45-39.514-3.475-57.711-12.173c-4.213,7.675-11.079,14.596-20.012,16.16
	c-9.704,1.699-21.29-1.076-30.329-4.593c0.91,5.665-1.513,10.832-4.236,15.678c-3.873,6.893-7.726,13.083-14.049,18.013
	c-6.665,5.197-13.591,7.344-21.705,9.348c-3.438,0.85-6.369,0.673-9.87,0.735c-1.671,0.03-3.34-0.067-4.702,1.013
	c1.578,4.936,1.615,9.696,0.788,14.864c-1.119,6.991-5.861,13.896-5.784,20.959c0.034,3.135,1.205,6.216,2.232,9.119
	c1.492,4.213,1.826,8.605,3.014,12.893c2.286,8.252,5.168,15.697,9.326,23.104c6.54,11.65,16.623,21.207,28.189,27.874
	c8.166,4.706,16.419,9.417,25.021,13.324c7.579,3.443,15.899,4.254,24.045,4.966c15.954,1.394,31.411,1.179,47.363-0.271
	c8.316-0.756,17.034-2.618,24.862-5.557c9.161-3.439,15.851-8.282,23.235-14.468c6.74-5.646,12.04-13.684,17.198-20.75
	c4.847-6.639,8.46-13.995,11.039-21.827c2.997-9.104,2.603-18.996,5.478-27.988c1.211-3.789,4.195-7.522,2.766-11.477
	c-0.896-2.479-2.895-4.161-4.802-5.8c-3.038-2.612-3.85-4.051-4.813-8.191c-1.491-6.414-2.867-12.882-1.894-19.514
	C358.57,201.793,364.094,190.037,361.028,184.324z"/>
<g>
	<path style="fill:#F95252;" d="M246.393,226.419c-7.337,4.478-18.764,8.845-21.178,17.891c-1.993,7.466-0.163,15.834,3.745,22.385
		c6.591,11.051,19.623,16.533,31.93,12.279c4.61-1.594,9.277-4.834,13.217-7.666c9.955-7.154,15.133-19.218,10.766-31.098
		c-4.139-11.26-20.547-16.634-31.331-13.262"/>
	<path style="fill:#F95252;" d="M310.461,272.485c-10.901,8.953-23.953,15.533-37.809,18.405
		c-13.831,2.867-30.906,4.014-44.21-1.608c-9.37-3.959-18.513-14.299-29.643-13.085c-5.146,0.562-13.14,5.067-16.107,9.19
		c-2.996,4.161-3.715,11.202-4.572,16.191c-2.232,13.005,10.465,18.603,19.717,24.046c13.065,7.686,29.256,11.562,44.217,12.854
		c18.818,1.625,37.166,1.838,55.788-1.97c10.66-2.18,25.151-4.31,29.809-15.603c4.236-10.271,6.689-23.235,6.051-34.335
		C333.011,274.536,319.474,271.385,310.461,272.485z"/>
</g>
<path style="fill:#CEB4F7;" d="M99.194,320.139c3.134-10.669,18.88-13.486,28.149-15.076c7.374-1.264,14.917-2.378,22.231-3.818
	c3.994-0.786,7.642-1.971,11.752-2.085c3.843-0.106,3.884,1.769,6.282,4.723c3.918,4.828,8.908,10.424,13.964,14.13
	c7.268,5.328,16.752,10.029,25.188,13.125c9.37,3.439,18.501,7.194,28.452,8.656c9.501,1.396,19.124,1.411,28.606,2.569
	c9.609,1.173,19.504,0.013,28.866-2.276c12.741-3.115,25.605-7.051,36.991-13.65c7.592-4.4,13.268-9.573,18.847-16.361
	c3.539-4.306,5.932-9.219,9.047-13.775c3.586,1.782,8.596,1.85,12.462,2.926c6.984,1.943,13.877,3.926,20.779,6.157
	c5.197,1.679,14.174,2.981,14.793,10.025c0.213,2.422-0.646,6.755-1.668,8.934c-1.363,2.903-2.671,3.086,0.32,5.449
	c5.554,4.388,9.383,9.377,6.629,16.755c-2.152,5.766-4.817,10.439-7.811,15.857c-3.132,5.668-3.637,12.369-6.758,17.934
	c-2.356,4.2-8.458,10.096-13.708,8.76c-5.575-1.418-6.248-6.806-8.568-11.167c-1.308-2.459-1.449-5.177-2.634-7.654
	c-1.028-2.147-2.866-3.725-4.264-5.622c-2.948-4-7.448-5.767-11.213-1.593c-7.458,8.267-6.542,20.754-11.312,30.352
	c-2.893,5.82-7.82,12.15-13.81,14.921c-5.793,2.681-10.353,1.539-15.845-1.188c-2.607-1.294-4.317-3.698-5.865-6.121
	c-2.206-3.453-1.279-5.722-1.615-9.708c-0.25-2.974-0.876-6.559-1.482-9.422c-0.567-2.678-2.77-3.79-5.281-4.255
	c-2.449-0.454-6.34-1.323-8.795-0.958c-8.946,1.332-5.685,15.811-9.198,21.752c-2.587,4.376-6.985,8.916-11.474,11.324
	c-5.256,2.82-15.083,4.002-20.023,0.706c-5.716-3.813-8.392-14.449-8.772-21.045c-0.284-4.918,0.184-10.078-2.158-14.659
	c-2.277-4.456-7.338-4.769-11.614-3.113c-7.284,2.82-7.341,5.744-8.527,12.538c-0.797,4.562-2.013,9.668-3.903,13.903
	c-1.149,2.575-2.591,5.271-4.285,7.533c-0.335,0.448-0.395,1.306-0.814,1.68c-2.931,2.611-12.597,1.542-16.462,1.275
	c-8.027-0.555-8.223-1.384-11.073-7.274c-2.886-5.965-1.784-12.201-2.565-18.631c-0.492-4.047-1.021-10.981-3.759-14.098
	c-2.86-3.256-7.86-5.307-11.472-2.988c-6.273,4.027-5.099,10.899-9.121,16.605c-3.89,5.519-9.105,12.379-16.425,12.989
	c-5.63,0.468-13.027-4.528-15.785-9.224c-1.292-2.2-3.099-4.147-3.915-6.593c-0.795-2.385-0.729-5.006-1.378-7.432
	c-1.482-5.534-4.136-10.274-7.418-14.918c-4.117-5.826-8.64-5.31-15.316-6.072c-3.18-6.816,9.749-7.861,7.475-14.292
	c-1.039-2.938-3.334-4.521-3.71-7.991C99.899,325.578,100.36,322.318,99.194,320.139z"/>
<path style="fill:#FFEC8D;" d="M85.957,406.711c-7.04,8.127-12.654,17.232-17.256,26.892c-5.029,10.555-6.734,21.116-8.091,32.568
	c-0.564,4.766-1.596,9.796-1.126,14.632c0.37,3.817,1.973,6.993,3.541,10.457c1.982,4.38,2.488,5.689,7.091,7.397
	c4.59,1.704,9.371,3.555,14.273,3.946c12.125,0.968,23.947,2.529,36.16,2.586c11.595,0.054,23.991,1.157,35.456-0.706
	c4.836-0.786,9.214,0.224,14.064,0.725c6.343,0.656,12.73,0.813,19.103,0.749c15.084-0.152,30.195-0.042,45.239-1.322
	c3.411-0.29,7.176-1.244,10.586-0.833c2.488,0.3,4.846,1.069,7.384,1.304c7.214,0.666,14.457,1.508,21.714,1.298
	c11.595-0.337,23.166,0.087,34.76,0.132c11.71,0.046,23.456-0.29,35.15,0.477c11.714,0.769,23.12,2.083,34.901,1.836
	c17.93-0.375,38.228,1.524,55.195-5.745c7.169-3.071,13.597-11.541,16.462-18.621c2.508-6.196,0.658-12.155-0.492-18.465
	c-1.453-7.974-2.114-16.041-3.894-23.954c-3.354-14.909-9.259-28.923-19.939-40.09c-5.919-6.189-12.966-11.928-19.658-17.271
	c-1.769-1.412-4.17-3.819-6.037-4.896c-1.691-0.976-1.271-0.997-2.981,0.037c-2.884,1.743-3.604,6.477-6.481,8.423
	c-1.848,1.25-4.714,1.449-6.842,1.226c-4.791-0.503-10.045-3.448-12.242-7.764c-2.71-5.323-4.373-11.378-7.662-16.408
	c-2.677-4.094-8.684-5.607-12.651-1.78c-2.446,2.36-4.297,8.234-5.27,11.337c-1.128,3.601-1.477,7.458-2.439,11.11
	c-0.887,3.363-1.996,6.579-2.671,9.993c-0.599,3.026-0.576,6.876-1.983,9.64c-2.956,5.799-11.762,7.571-17.725,6.679
	c-5.96-0.892-10.909-4.854-14.569-9.292c-3.188-3.866-2.259-5.042-2.148-9.836c0.07-3.042-0.501-6.217-1.065-9.211
	c-0.834-4.433-2.003-5.776-5.654-8.145c-4.552-2.954-5.886-1.558-8.65,2.976c-6.197,10.166-1.563,25.818-11.097,34.396
	c-8.684,7.813-24.599,5.876-31.722-2.588c-3.738-4.442-5.901-7.954-6.176-13.995c-0.225-4.93,1.569-10.007,0.621-14.846
	c-0.436-2.225-1.842-6.822-3.86-8.224c-3.792-2.634-8.387,1.392-10.679,4.292c-4.366,5.525-4.691,13.166-7.111,19.521
	c-2.265,5.952-7.429,12.406-13.351,15.041c-6.349,2.825-15.588,1.6-19.504-4.716c-2.667-4.3-4.995-10.756-5.797-15.808
	c-1.149-7.243,3.526-30.532-11.297-27.442c-5.615,1.17-8.944,8.837-11.283,13.24c-3.316,6.242-7.048,12.918-13.712,16.118
	c-5.367,2.577-9.292,1.122-14.09-1.321c-2.723-1.386-3.443-1.3-4.868-4.372c-1.371-2.957-1.207-7.336-3.955-9.417
	c-4.225-3.198-13.41,3.62-16.505,5.841c-9.78,7.017-17.603,17.997-23.138,28.553"/>
<g>
	<path style="fill:#F95252;" d="M254.865,430.803c-7.001-3.141-17.845,4.381-22.379,8.972c-7.022,7.108-12.782,17.606-8.876,27.756
		c5.102,13.258,21.481,22.769,35.244,19.384c8.126-1.999,14.53-5.088,19.691-11.765c4.066-5.261,5.686-11.847,5.523-18.503
		c-0.136-5.567-3.689-11.797-7.519-15.752C272.02,436.217,263.096,431.612,254.865,430.803z"/>
	<path style="fill:#F95252;" d="M363.411,363.559c-3.229,7.26-3.605,16.818-4.498,24.633c-0.894,7.824-1.076,15.655-2.003,23.454
		c-0.737,6.2-0.833,12.489-1.429,18.724c-0.984,10.3-2.549,20.257-4.249,30.45c-1.828,10.963-4.2,21.644-4.843,32.763
		c-0.127,2.192-1.335,8.229-0.183,9.955c1.247,1.867,5.541,2.118,7.586,2.326c5.185,0.527,9.956-0.275,15.139,0.866
		c4.07,0.896,7.986,0.736,12.118,0.836c2.817,0.068,4.923-0.087,7.604-0.469c1.404-0.2,2.191-0.583,3.363,0.256
		c2.759-2.932,3.551-10.997,3.917-15.104c0.748-8.38,0.348-16.715,1.682-25.104c2.083-13.089,2.392-26.181,2.728-39.406
		c0.295-11.617,2.04-22.706,3.174-34.213c0.323-3.274,2.141-6.743,2.246-9.874c0.032-0.952,0.088-1.521-0.36-2.311
		c-1.405-2.476-2.77-1.429-4.691,0.365c-4.193,3.916-6.019,7.771-12.305,9.095c-8.225,1.733-13.059-2.717-15.882-9.898
		C370.992,377.005,368.7,363.71,363.411,363.559z"/>
	<path style="fill:#F95252;" d="M117.197,377.324c-5.271-0.337-8.807,6.866-13.655,8.248c1.007,0.67,2.196,1.02,3.312,0.238
		c1.034,2.875,1.777,5.1,2.2,8.301c0.582,4.408,0.687,9.154,0.924,13.61c0.349,6.545,1.808,13.284,2.892,19.769
		c2.784,16.654,5.378,33.274,7.008,50.128c0.763,7.889,0.429,15.949,0.809,23.867c0.194,4.05,0.642,5.986,4.798,6.665
		c3.424,0.559,6.363-0.748,9.627-1.526c4.458-1.064,9.086-0.987,13.626-1.411c4.967-0.463,13.222,0.185,17.708-2.412
		c2.833-1.64,1.515-2.755,1.248-6.4c-0.582-7.939-2.305-15.724-3.366-23.628c-3.688-27.489-9.223-55.101-12.248-82.417
		c-4.269,6.291-11.169,6.003-17.774,4.444c-3.31-0.782-5.439-1.834-8.155-3.875C121.391,387.352,120.599,384.501,117.197,377.324z"
		/>
</g>
<polygon style="fill:#FFEC8D;" points="254.846,5.843 224.743,13.534 190.96,34.855 176.403,62.423 174.48,84.121 129.711,89.064 
	133.247,100.597 168.987,114.333 239.849,120.375 302.196,118.728 341.197,109.389 370.037,96.48 373.333,81.374 330.211,80.825 
	329.937,52.81 313.457,21.499 288.188,10.512 "/>
<polygon style="fill:#F95252;" points="176.403,62.423 255.164,56.966 332.996,56.966 330.211,80.825 174.48,84.121 "/>
<path d="M467.712,174.523c5.413-14.955,2.892-32.315-7.598-44.687c-10.437-12.31-27.838-17.595-43.457-14.292
	c-6.025-14.788-21.955-24.878-37.794-23.702c1.582-3.268,2.621-6.856,2.95-10.774c0.239-2.846-2.634-5.366-5.329-5.329
	c-13.781,0.193-27.565,0.396-41.351,0.635c7.759-33.126-16.519-64.237-47.854-72.989c-33.585-9.38-76.164,1.066-99.834,27.186
	c-12.174,13.433-19.861,32.261-16.47,50.433c-10.231,0.027-20.461,0.134-30.669,0.606c-5.929,0.274-13.167,1.254-14.131,8.472
	c-0.457,3.419,0.957,6.409,3.102,8.927c-7.434,1.634-14.538,7.489-20.53,12.244c-12.3,9.758-28.77,9.295-42.572,15.821
	c-21.372,10.105-26.657,37.118-15.76,56.405c-13.365,7.654-23.986,20.753-27.474,35.847c-3.714,16.077,1.996,33.438,15.015,43.776
	c6.127,4.865,13.518,7.851,21.407,7.884c9.605,0.041,21.016-6.225,30.245-2.053c3.826,1.73,6.881,4.834,10.638,6.71
	c4.279,2.137,8.938,2.968,13.689,2.459c9.141-0.979,17.362-6.23,23.688-12.681c2.227-2.27,4.213-4.725,5.972-7.317
	c1.473,13.506,6.142,26.123,13.137,37.389c-15.904,2.361-32.088,5.184-47.099,11.031c-5.958,2.321-11.854,5.894-13.823,12.393
	c-2.068,6.825,0.404,13.674,3.488,19.752c-4.004,3.037-12.639,11.565-6.657,16.835c5.842,5.146,11.875-5.107,17.063,5.38
	c2.232,4.513,2.729,9.688,3.573,14.658c-32.951,21.97-55.863,58.234-62.366,97.305c-1.67,10.033-1.844,20.877,5.323,28.963
	c6.223,7.021,15.96,9.149,24.924,9.797c11.939,0.863,24.117,0.041,36.08-0.026c13.259-0.075,26.519-0.149,39.778-0.224
	c53.386-0.301,106.771-0.419,160.159-0.481c26.868-0.032,53.735-0.061,80.603-0.107c19.256-0.033,46.163,2.838,56.647-17.692
	c5.083-9.953,4.938-21.437,3.433-32.235c-1.651-11.851-4.844-23.299-9.782-34.203c-9.512-21.004-24.654-39.011-43.323-52.451
	c0.958-3.315,1.599-6.752,2.486-10.056c0.814-3.034,1.674-6.244,3.285-8.961c1.466-2.474,3.625-4.496,4.966-7.049
	c4.374-8.32-1.33-14.398-8.152-18.715c7.57-7.391,2.571-20.214-6.063-25.354c-5.968-3.553-13.278-4.923-19.905-6.678
	c-6.8-1.801-13.676-3.115-20.565-4.442c3.934-8.037,6.531-16.644,7.581-25.609c1.761,2.083,3.8,3.953,6.071,5.528
	c13.877,9.625,32.557,7.379,47.391,1.506c16.039-6.35,31.939-14.126,45.619-24.735c12.774-9.906,22.908-24.611,22.702-41.313
	C489.993,193.978,481.122,179.621,467.712,174.523z M230.241,15.208c28.198-9.628,64.579-8.364,84.995,16.17
	c5.313,6.385,9.094,14.015,10.741,22.028c-11.13-1.415-23.014-0.468-34.122-0.379c-13.19,0.105-26.375,0.444-39.552,1.032
	c-23.409,1.044-47.219,2.207-70.404,6.031C189.667,38.886,207.605,22.937,230.241,15.208z M180.165,65.528
	c24.05-0.718,48.081-3.009,72.138-3.846c12.484-0.434,24.978-0.691,37.469-0.758c6.247-0.034,12.494-0.018,18.74,0.048
	c6.062,0.064,12.311,0.617,18.365,0.057c0.13,4.638-0.485,9.315-1.994,13.875c-0.194,0.588-0.28,1.146-0.275,1.67
	c-39.826,0.757-79.65,1.908-119.408,4.27c-2.12,0.024-4.24,0.049-6.36,0.073c-7.018,0.078-14.042,0.073-21.069,0.077
	C177.996,75.609,178.822,70.447,180.165,65.528z M136.762,91.256c1.766-0.308,3.849-0.02,5.635-0.017
	c4.887,0.008,9.75-0.119,14.634-0.296c33.445-1.21,66.897-2.181,100.345-3.312c22.951-0.776,45.901-1.549,68.853-2.254
	c14.565,0.113,29.13,0.378,43.695,0.82c-4.258,11.979-17.063,17.93-29.092,20.87c-15.645,3.823-31.905,5.743-47.925,7.109
	c-32.378,2.76-64.97,1.877-97.298-1.125c-14.85-1.379-30.107-2.883-44.07-8.487c-4.866-1.953-14.537-5.605-16.295-11.018
	C134.504,91.271,134.535,91.644,136.762,91.256z M106.869,318.977c4.023-4.1,11.675-5.398,16.983-6.901
	c12.64-3.58,25.641-5.842,38.506-8.443c0.001,0,0.001,0,0.002,0c1.265,1.648,2.572,3.266,3.938,4.84
	c-7.373,2.278-14.574,5.675-21.607,8.594c-8.879,3.686-17.711,7.483-26.486,11.41c-3.908,1.749-8.382,3.722-12.643,6.129
	C104.309,329.393,102.851,323.072,106.869,318.977z M104.43,347.542c6.885-4.787,14.645-8.155,22.74-11.752
	c7.966-3.54,15.977-6.979,24.037-10.298c7.412-3.053,15.278-5.627,22.374-9.412c7.2,6.832,15.373,12.747,24.182,17.552
	c-6.923,3.225-13.577,8.072-19.58,12.153c-7.338,4.989-14.586,10.59-20.163,17.559c-0.527,0.658-1.018,1.365-1.483,2.11
	c-4.288,6.873-6.315,16.974-12.724,21.454c-4.006,2.801-10.011,2.875-14.151,0.332c-5.869-3.605-6.654-11.657-7.937-17.788
	c-1.216-5.809-2.94-11.781-6.923-16.354C112.179,350.086,108.345,348.107,104.43,347.542z M308.302,371.608
	c-4.22-5.676-11.147-7.727-15.908-12.632c-3.477-3.583-6.228-8.244-9.57-12.017c3.442-0.954,37.538-13.287,37.721-13.14
	c0.111,0.089,0.225,0.178,0.349,0.262c11.736,7.906,23.531,15.716,35.442,23.351c-0.459,0.121-0.921,0.257-1.391,0.429
	c-12.401,4.557-11.858,18.243-13.85,28.945c-1.837,9.867-9.435,20.681-20.79,18.439C304.01,402.025,315.066,380.708,308.302,371.608
	z M244.285,373.383c-3.118-6.162-8.945-7.902-14.531-6.603c5.365-5.99,10.681-12.124,14.767-18.837
	c8.615,0.938,17.374,1.066,26.064,0.373c6.86,6.983,14.344,13.311,21.341,20.174c-2.094,0.588-4.155,1.712-6.046,3.439
	c-3.884,3.548-5.893,8.47-6.747,13.557c-0.995,5.924-0.215,12.847-3.729,18.037c-6.508,9.612-19.97,10.101-26.964,0.819
	C241.292,394.857,249.401,383.493,244.285,373.383z M177.982,362.572c-2.452-2.143-5.007-3.226-7.53-3.494
	c3.793-2.342,7.618-4.636,11.436-6.956c8.086-4.913,17.582-8.416,25.204-13.929c2.456,1.071,4.946,2.066,7.47,2.965
	c6.754,2.406,13.8,4.243,21.003,5.514c-2.916-0.515-10.203,15.26-11.686,18.014c-1.495,2.776-2.7,6.114-3.808,9.685
	c-3.144,10.134-5.505,22.135-11.495,28.424c-3.551,3.729-9.239,5.341-14.14,3.619c-6.711-2.359-9.23-8.624-9.41-15.256
	C184.757,381.231,186.389,369.918,177.982,362.572z M318.851,323.36c-9.68,5.656-20.354,9.657-31.364,12.101
	c-32.719,7.263-68.628,1.261-96.276-17.537c-3.482-3.728-6.367-7.923-7.92-12.981c-2.381-7.758-0.594-16.371,5.784-21.735
	c6.574-5.528,14.327-3.763,21.286,0.073c6.896,3.801,13.164,8.283,20.661,10.902c25.229,8.812,53.993,2.372,73.998-14.881
	c2.193-1.197,4.443-2.264,6.823-2.97c11.935-3.542,20.69,6.898,20.099,18.253C331.372,305.533,324.744,314.524,318.851,323.36z
	 M110.958,500.285c-10.326-0.009-21.023,0.702-31.288-0.639c-8.714-1.138-16.834-4.72-17.883-14.43
	c-1.116-10.333,1.781-21.772,4.626-31.64c2.891-10.027,6.886-19.681,11.885-28.839c7.343-13.452,16.723-25.731,27.641-36.462
	c0.591,9.273,0.881,18.519,1.849,27.792c1.003,9.621,2.006,19.242,3.01,28.863c1.919,18.407,3.574,37.046,6.375,55.36
	C115.101,500.289,113.029,500.287,110.958,500.285z M125.85,500.298c-1.767-18.824-4.832-37.687-7.546-56.383
	c-1.389-9.569-2.778-19.138-4.167-28.707c-1.446-9.964-3.65-19.705-5.433-29.59c1.845-1.729,3.729-3.418,5.653-5.059
	c2.724,9.816,9.178,17.483,19.908,18.721c6.091,0.703,11.819-0.892,16.372-4.239c0.201,7.302,1.064,14.641,1.62,21.875
	c0.717,9.33,1.415,18.66,2.25,27.979c1.651,18.439,2.619,37.134,5.512,55.431C148.628,500.317,137.239,500.309,125.85,500.298z
	 M183.187,500.346c-4.5-0.004-9-0.007-13.5-0.011c0.011-0.171,0.037-0.335,0.028-0.516c-0.971-19.035-4.124-38.083-6.438-56.995
	c-1.099-8.983-2.351-17.947-3.562-26.917c-1.171-8.671-1.943-17.581-3.925-26.134c0.937-1.324,1.768-2.755,2.449-4.306
	c2.179-4.959,2.808-11.181,6.611-15.296c5.254-5.686,10.401-0.376,11.779,5.466c1.453,6.161-0.626,12.793-0.205,19.048
	c0.374,5.549,2.197,10.723,5.915,14.917c7.372,8.314,19.835,10.505,29.413,4.67c4.423-2.694,7.744-6.633,9.766-11.374
	c2.606-6.112,2.221-12.768,4.081-19.064c1.09-3.689,6.671-11.858,10.824-6.629c3.591,4.522-0.135,12.664-0.119,17.851
	c0.071,23.217,28.709,34.902,45.099,18.554c3.49-3.481,5.991-7.925,7.118-12.723c1.466-6.236-0.207-14.113,3.159-19.709
	c4.141-6.883,8.979-1.467,9.783,4.117c0.896,6.226-0.219,12.435,2.47,18.376c4.145,9.155,14.952,13.398,24.521,11.726
	c10.731-1.876,18.401-11.534,21.509-21.456c1.116-3.564,1.862-24.6,7.999-27.469c-3.146,21.767-5.476,43.632-7.72,65.509
	c-1.974,19.236-4.199,38.447-5.815,57.718c-0.475,5.66,1.406,9.455-5.536,10.472c-4.105,0.602-8.192-0.183-12.296-0.168
	C278.793,500.176,230.99,500.386,183.187,500.346z M390.666,471.547c-1.192,9.285-2.999,18.861-3.326,28.246
	c-11.359,0.037-22.719,0.078-34.078,0.118c2.668-22.208,4.279-44.617,6.232-66.893c1.868-21.304,3.679-42.611,4.707-63.974
	c1.776,2.446,2.695,6.057,3.629,8.57c1.406,3.786,2.968,7.655,5.774,10.647c7.976,8.506,19.13,4.204,25.675-3.412
	c1.101,0.82,2.181,1.665,3.25,2.522c-3.053,18.45-5.774,36.943-8.177,55.491C393.112,452.422,391.895,461.985,390.666,471.547z
	 M408.528,392.537c10.454,9.629,19.122,21.128,25.626,33.806c7.968,15.532,15.427,35.865,12.742,53.606
	c-3.513,23.206-30.554,19.75-48.07,19.805c-0.52,0.001-1.04,0.004-1.56,0.005c1.57-8.234,2.087-16.857,3.011-25.139
	c1.104-9.903,2.208-19.806,3.313-29.709C405.534,427.478,407.17,410.022,408.528,392.537z M404.926,338.041
	c2.654,2.034,4.399,4.098,2.269,7.22c-1.428,2.093-3.817,3.621-5.35,5.73c-6.455,8.879-4.238,23.701-13.55,30.475
	c-8.367,6.086-11.658-7.066-14.027-12.476c-4.335-9.9-10.351-14.162-19.069-20.103c-2.757-1.879-24.871-21.095-26.524-19.989
	c5.003-3.345,9.728-7.111,14.083-11.333c1.801-1.746,3.52-3.552,5.156-5.412c13.191,6.704,27.127,11.986,40.694,17.883
	C393.98,332.373,400.226,334.438,404.926,338.041z M385.591,308.641c5.201,1.562,22.337,8.003,12.859,15.345
	c-0.192,0.149-0.342,0.312-0.497,0.473c-0.015-0.007-0.032-0.015-0.047-0.022c-14.505-6.796-28.644-14.49-43.395-20.74
	c1.007-1.465,1.962-2.958,2.872-4.473C366.736,302.547,376.061,305.777,385.591,308.641z M362.021,254.941
	c-0.956,18.501-9.413,37.239-21.581,50.908c-1.255,1.41-2.567,2.754-3.905,4.067c1.922-3.956,3.272-8.167,3.772-12.64
	c1.286-11.5-3.921-24.143-15.322-28.497c-12.669-4.838-23.334,4.876-33.468,10.92c-8.547,5.098-18.156,8.688-28.035,10.474
	c-10.209,0.63-20.564-0.937-30.033-4.796c-12.001-4.893-22.826-16.583-36.68-14.878c-11.867,1.46-20.616,12.464-22.145,23.889
	c-0.455,3.403-0.253,6.805,0.479,10.099c-0.581-0.591-1.167-1.177-1.735-1.784c-13.368-14.27-22.468-32.802-25.485-52.178
	c4.73-10.094,6.499-21.555,5.279-32.703c25.302,0.9,48.08-15.291,53.303-40.144c8.274,3.103,17.536,3.37,26.116,1.051
	c9.674-2.614,17.425-8.057,22.658-16.081c16.858,15.71,42.915,19.419,62.792,7.779c7.665,12.105,21.27,20.343,35.515,20.253
	c-6.143,16.645-3.386,35.933,9.327,49.003C360.961,244.67,360.804,249.947,362.021,254.941z M477.469,215.69
	c-4.04,16.392-17.296,29.054-32.359,35.729c-14.951,6.625-31.667,16.141-48.423,16.196c-7.178,0.023-15.078-1.941-20.028-7.499
	c-4.611-5.177-6.136-12.802-2.573-18.917c1.117-1.917,0.963-5.008-0.843-6.529c-12.748-10.739-18.001-33.025-6.936-46.94
	c3.263-4.104,0.283-9.758-5.089-8.742c-15.193,2.874-30.509-4.604-36.696-18.878c-1.501-3.462-6.033-2.979-8.378-1.08
	c-16.526,13.378-45.225,11.764-58.041-6.019c-1.819-2.523-5.988-3.2-7.66,0c-8.354,15.991-30.989,21.596-45.653,11.436
	c-3.734-2.587-8.058,0.952-8.349,4.791c-1.818,23.947-23.774,42.927-47.932,38.16c-3.914-0.772-6.942,2.29-6.19,6.19
	c2.744,14.226-1.515,28.372-10.101,39.833c-4.312,5.755-10.329,11.143-17.431,12.973c-8.206,2.114-12.918-3.517-19.682-6.866
	c-14.591-7.223-29.565,4.859-44.03-0.831c-12.315-4.844-19.616-19.096-18.234-31.919c1.749-16.223,14.425-28.666,27.553-36.939
	c2.702-1.703,3.519-5.715,1.037-8.043c-7.075-6.638-9-17.128-6.914-26.392c2.455-10.897,10.348-17.903,20.832-20.977
	c11.226-3.29,23.681-3.531,33.642-10.322c8.167-5.568,18.725-23.164,30.371-17.521c12.498,7.077,26.266,10.49,40.519,12.475
	c36.272,5.051,73.452,6.674,109.995,4.175c19.69-1.346,40.659-3.044,59.585-8.951c8.002-2.498,15.985-6.64,22.035-12.464
	c0.2-0.016,0.396-0.023,0.607-0.065c15.326-3.017,31.627,6.826,35.563,22.012c0.72,2.778,3.997,4.808,6.806,3.864
	c12.755-4.282,27.511-1.07,36.591,9.165c9.327,10.513,10.559,26.534,3.847,38.672c-1.563,2.829-0.392,7.797,3.382,8.313
	C473.328,185.838,480.887,201.82,477.469,215.69z"/>
<path d="M253.68,220.975c-7.512,1.181-14.337,4.901-20.001,9.917c-6.743,4.446-11.846,10.974-13.542,19.847
	c-3.909,20.436,14.717,33.24,33.43,33.011c18.776-0.23,36.043-13.623,36.473-33.263C290.462,231.162,271.922,218.107,253.68,220.975
	z M272.495,267.732c-8.016,7.139-21.2,8.881-31.17,5.456c-10.148-3.488-18.422-15.829-12.649-26.357
	c2.553-4.657,7.044-8.815,10.809-11.383c6.995-4.772,15.81-7.285,24.156-5.071c7.743,2.054,14.76,7.318,16.449,15.506
	C281.725,253.809,278.47,262.411,272.495,267.732z"/>
<path d="M292.216,300.128c-11.037,6.646-22.816,11.215-35.886,11.069c-12.732-0.142-25.366-4.698-35.884-11.729
	c-2.74-1.831-5.961,2.343-3.526,4.57c21.819,19.962,57.206,21.781,80.115,2.333C300.508,303.421,296.029,297.831,292.216,300.128z"
	/>
<path d="M226.412,224.936c-0.767-10.188-9.512-18.824-20.112-17.301c-9.767,1.403-16.896,11.617-12.748,20.99
	c1.243,2.808,5.467,1.768,6.218-0.813c1.091-3.752,3.331-8.148,7.519-9.148c3.862-0.921,8.125,2.366,8.55,6.271
	C216.561,231.571,226.929,231.804,226.412,224.936z"/>
<path d="M326.133,219.221c-3.345-9.408-12.614-16.296-22.879-14.302c-8.141,1.582-18.358,11.366-13.516,20.211
	c0.995,1.817,3.532,2.012,4.957,0.639c3.275-3.157,4.838-7.64,9.582-9.136c4.5-1.418,9.729,1.021,11.423,5.464
	C318.143,228.503,328.489,225.847,326.133,219.221z"/>
<path d="M264.726,428.011c-9.208-2.392-18.578-0.519-26.404,4.127c-10.328,6.131-22.32,17.887-20.274,31.329
	c1.787,11.74,17.081,23.819,28.005,26.069c17.084,3.519,37.265-4.915,41.942-22.862
	C292.463,449.533,281.593,432.391,264.726,428.011z M269.99,476.81c-16.763,10.313-44.643-0.342-41.995-22.719
	c1.837-15.527,26.048-20.734,38.083-15.407C281.547,445.533,285.081,467.525,269.99,476.81z"/>
<g>
</g>
<g>
</g>
<g>
</g>
<g>
</g>
<g>
</g>
<g>
</g>
<g>
</g>
<g>
</g>
<g>
</g>
<g>
</g>
<g>
</g>
<g>
</g>
<g>
</g>
<g>
</g>
<g>
</g>
</svg>
