<svg id="Layer_1" enable-background="new 0 0 512.014 512.014" height="512" viewBox="0 0 512.014 512.014" width="512" xmlns="http://www.w3.org/2000/svg"><g><g><g><path d="m218.473 7.542s68.371 15.818 55.52 121.688l-30.68-3.962s7.48-57.916-45.128-64.71" fill="#60d173"/><g><ellipse cx="207.202" cy="33.829" fill="#9af59d" rx="28.331" ry="14.121" transform="matrix(.428 -.904 .904 .428 87.959 206.624)"/></g></g><path d="m385.204 118.873c-19.03 0-37.014 6.868-52.976 19.063-21.49-23.618-47.8-37.518-76.22-37.518s-54.73 13.9-76.22 37.518c-15.962-12.195-33.947-19.063-52.976-19.063-65.889 0-119.303 82.197-119.303 183.593s53.412 183.593 119.301 183.593c19.03 0 37.014-6.868 52.976-19.063 21.49 23.618 47.8 37.518 76.22 37.518s54.73-13.9 76.22-37.518c15.962 12.195 33.947 19.063 52.976 19.063 65.889 0 119.303-82.197 119.303-183.593s-53.412-183.593-119.301-183.593z" fill="#ff9e17"/><g fill="#f79000"><path d="m162.674 156.014c2.351-2.584 14.65-15.732 17.113-18.077 0 0-12.28-9.756-25.231-14.063-8.903-3.267-18.192-5-27.746-5-6.82 0-13.503.894-20.011 2.585 11.656 3.03 36.041 12.055 55.875 34.555z"/><path d="m306.007 155.264c4.628-3.536 21.276-14.725 26.22-17.327 0 0-9.47-10.423-14.769-14.063-18.334-14.972-39.249-23.455-61.451-23.455-6.801 0-13.478.804-20 2.339 20.734 4.877 51.25 26.506 70 52.506z"/><path d="m309.174 450.847c-11.333 17-52.433 46.45-73.167 51.328 6.522 1.534 13.199 2.339 20 2.339 22.202 0 43.117-8.483 61.451-23.455 6.715-5.212 14.769-14.063 14.769-14.063-5.31-2.711-18.103-12.367-23.053-16.149z"/><path d="m161.84 448.181c-16.583 14.833-43.385 32.263-55.041 35.293 6.507 1.691 13.191 2.585 20.011 2.585 9.553 0 18.843-1.733 27.746-5 13.035-4.378 25.231-14.063 25.231-14.063-2.367-2.267-15.684-16.329-17.947-18.815z"/><path d="m385.204 118.873c-6.813 0-13.489.895-19.989 2.585 56.361 14.65 99.292 90.107 99.292 181.008s-42.932 166.358-99.292 181.008c6.5 1.69 13.176 2.585 19.989 2.585 65.889 0 119.303-82.197 119.303-183.593s-53.414-183.593-119.303-183.593z"/></g><g><g fill="#ffcc57"><path d="m227.417 263.216c-16.303 24.959-49.753 31.977-74.712 15.674s-31.977-49.753-15.674-74.712z"/><path d="m137.031 204.177c-4.26 6.521-6.913 13.624-8.084 20.847l58.47 38.192c-6.323 9.68-15.229 16.646-25.214 20.615 23.392 9.37 50.906 1.29 65.214-20.615z"/><path d="m284.597 263.216c16.303 24.959 49.753 31.977 74.712 15.674s31.977-49.753 15.674-74.712z"/><path d="m374.983 204.177-31.916 20.847c3.312 20.422-5.32 41.822-23.758 53.865-3.054 1.995-6.237 3.635-9.498 4.942 15.762 6.265 34.218 5.039 49.498-4.942 24.959-16.302 31.977-49.752 15.674-74.712z"/></g><g><path d="m423.523 321.818h-57.759v13.106c0 6.002-4.865 10.867-10.867 10.867h-26.081c-6.002 0-10.867-4.865-10.867-10.867v-13.106h-128.231v13.106c0 6.002-4.865 10.867-10.867 10.867h-26.081c-6.002 0-10.867-4.865-10.867-10.867v-13.106h-53.412c22.582 62.133 109.431 93.666 169.69 93.026v-19.064c0-6.002 4.865-10.867 10.867-10.867h26.081c6.002 0 10.867 4.865 10.867 10.867v13.052c54.597-13.195 101.045-46.703 117.527-87.014z" fill="#ffcc57"/></g></g></g><g><path d="m475.853 168.56c-23.964-36.877-56.156-57.187-90.648-57.187-17.945 0-35.81 5.74-52.038 16.661-14.627-14.758-30.801-25.025-47.857-30.495 6.684-6.734 14.185-12.662 22.315-17.555.159 3.857 1.118 7.648 3.228 11.137 4.688 7.752 13.703 11.778 22.579 11.375 16.577-.752 36.279-14.842 30.808-33.476-3.881-13.219-16.856-16.328-28.962-15.154 8.414-8.819 19.528-15.635 29.952-20.149 8.784-3.805 1.238-16.768-7.571-12.952-17.908 7.756-36.119 21.675-45.101 39.564-11.271 4.938-21.846 12.016-31.074 20.172-4.594-31.755-18.177-50.94-29.802-61.893-7.311-6.888-22.746-19.921-34.132-18.502-10.312-.907-22.397 8.647-29.89 24.47-8.741 18.462-6.932 36.362 4.209 41.637 8.688 4.112 18.366 3.975 26.443 9.667 6.833 4.816 11.66 12.106 14.368 19.942-19.257 4.855-37.508 15.74-53.833 32.211-26.465-17.81-59.511-21.816-88.825-8.555-8.815 3.987-2.633 17.653 6.182 13.667 24.083-10.893 51.139-7.829 73.068 6.53-4.825 6.91-12.379 18.458-17.136 29.332-3.879 8.866 9.867 14.866 13.742 6.013 6.105-13.953 17.985-30.02 19.67-32.268 20.827-22.789 45.184-34.834 70.459-34.834 25.279 0 49.64 12.05 70.469 34.846 3.98 5.224 10.755 14.814 12.637 19.204 3.809 8.889 17.599 2.984 13.787-5.909-1.988-4.64-6.559-11.445-10.104-16.418 13.469-8.806 27.702-13.268 42.407-13.268 29.242 0 56.968 17.885 78.071 50.36 21.752 33.474 33.731 78.127 33.731 125.733s-11.979 92.259-33.731 125.733c-21.104 32.475-48.829 50.36-78.071 50.36-14.616 0-28.767-4.413-42.165-13.114 4.815-6.335 12.217-16.802 18.604-28.938 4.507-8.56-8.766-15.547-13.273-6.986-9.08 17.251-20.728 31.274-21.769 32.514-20.857 22.883-45.265 34.979-70.594 34.979-25.349 0-49.776-12.114-70.643-35.033-.398-.451-9.592-10.94-15.585-23.526-4.158-8.735-17.703-2.285-13.543 6.449 3.945 8.284 8.961 15.625 12.691 20.571-13.384 8.68-27.518 13.083-42.117 13.083-29.242 0-56.968-17.885-78.071-50.36-21.752-33.474-33.731-78.127-33.731-125.733 0-59.923 19.247-115.263 51.487-148.032 6.581-6.691-3.812-17.515-10.693-10.52-34.937 35.512-55.794 94.784-55.794 158.553 0 50.473 12.84 98.028 36.154 133.906 23.964 36.877 56.156 57.187 90.648 57.187 17.945 0 35.81-5.74 52.038-16.661 22.799 23.003 49.354 35.116 77.159 35.116s54.36-12.113 77.159-35.116c16.229 10.921 34.093 16.661 52.038 16.661 34.492 0 66.685-20.309 90.648-57.187 23.314-35.878 36.154-83.434 36.154-133.906s-12.838-98.028-36.152-133.906zm-128.107-98.418c2.011 2.747 2.511 4.497 1.782 7.364-1.202 4.73-7.296 7.916-11.584 9.154-4.535 1.31-10.171 1.589-13.52-2.311-2.872-3.345-2.085-8.263-.703-12.309 6.604-2.517 17.463-6.238 24.025-1.898zm-146.529-39.146c5.696-12.029 13.18-16.225 14.895-15.984 1.282 1.188 2.769 9.626-2.925 21.651-5.692 12.024-13.148 16.223-14.895 15.984-1.281-1.188-2.768-9.627 2.925-21.651zm46.437 62.295c-5.168-16.814-15.794-28.943-30.8-35.426 3.789-4.047 7.207-9.118 9.889-14.783 3.307-6.985 5.224-14.268 5.515-20.795 14.014 9.375 32.856 29.623 35.52 71.37-6.667-.831-13.431-.956-20.124-.366z"/><path d="m182.1 295.196c4.236 0 8.505-.44 12.747-1.33 16.072-3.372 29.869-12.8 38.85-26.549 2.265-3.468 1.29-8.116-2.178-10.381l-90.386-59.039c-3.422-2.237-8.145-1.244-10.381 2.178-18.538 28.382-10.53 66.555 17.852 85.093 10.119 6.61 21.685 10.028 33.496 10.028zm-42.385-80.307 76.821 50.178c-6.522 7.165-15.102 12.091-24.769 14.12-12.151 2.549-24.567.214-34.961-6.576-19.32-12.62-26.152-37.273-17.091-57.722z"/><path d="m317.167 293.866c15.875 3.33 32.661.174 46.243-8.697 28.382-18.539 36.39-56.711 17.852-85.093-2.236-3.422-6.958-4.415-10.381-2.178l-90.386 59.039c-3.468 2.265-4.442 6.913-2.178 10.381 8.981 13.748 22.778 23.177 38.85 26.548zm55.132-78.977c9.061 20.449 2.229 45.103-17.092 57.722-18.829 12.298-44.58 9.097-59.729-7.544z"/><path d="m155.932 398.618c30.722 14.917 68.121 23.736 100.462 23.735 4.583 0 9.287-2.19 9.287-7.509v-19.064c0-1.856 1.511-3.367 3.367-3.367h26.08c1.856 0 3.367 1.511 3.367 3.367v13.052c0 4.78 4.613 8.418 9.262 7.29 17.221-4.162 33.764-10.289 49.171-18.212 8.604-4.425 1.744-17.763-6.859-13.34-11.57 5.95-23.835 10.814-36.573 14.51v-3.3c0-10.128-8.239-18.367-18.367-18.367h-26.08c-10.128 0-18.367 8.239-18.367 18.367v11.479c-28.803-.956-61.218-9.034-88.197-22.134-35.812-17.388-53.66-38.548-62.536-55.807h34.455v5.606c0 10.127 8.239 18.367 18.367 18.367h26.081c10.128 0 18.367-8.24 18.367-18.367v-5.606h113.231v5.606c0 10.127 8.239 18.367 18.367 18.367h26.081c10.128 0 18.367-8.24 18.367-18.367v-5.606h38.288c-6.939 12.291-17.084 24.085-29.81 34.581-7.463 6.156 2.081 17.728 9.545 11.572 18.164-14.982 31.712-32.553 39.177-50.815 1.984-4.855-1.697-10.338-6.942-10.338h-57.758c-4.143 0-7.5 3.358-7.5 7.5v13.106c0 1.856-1.511 3.367-3.367 3.367h-26.081c-1.856 0-3.367-1.511-3.367-3.367v-13.106c0-4.142-3.357-7.5-7.5-7.5h-128.232c-4.143 0-7.5 3.358-7.5 7.5v13.106c0 1.856-1.511 3.367-3.367 3.367h-26.081c-1.856 0-3.367-1.511-3.367-3.367v-13.106c0-4.142-3.357-7.5-7.5-7.5h-53.412c-5.122 0-8.799 5.248-7.049 10.062 7.666 21.089 26.81 51.087 74.49 74.238z"/></g></g></svg>