<svg id="filled_outline" height="512" viewBox="0 0 512 512" width="512" xmlns="http://www.w3.org/2000/svg" data-name="filled outline"><path d="m280 488v-88l24-8 8-40-20.95494-97.7897a32 32 0 0 0 -15.7491-21.2681l-59.29596-32.9422-48 16-48-16-59.296 32.9422a32 32 0 0 0 -15.7491 21.2681l-20.9549 97.7897 8 40 24 8v88z" fill="#e0edff"/><path d="m299.014 291.401-115.014 124.599v72h96l32-136z" fill="#c8dbf7"/><path d="m56 400 48 16h48v72h-96z" fill="#c8dbf7"/><path d="m184 488v-208l32-80h-96l32 80v208z" fill="#548aff"/><path d="m216 200-25.626-38.438h-44.748l-25.626 38.438 48 16z" fill="#ffbfa1"/><path d="m224 72v56a56 56 0 0 1 -55.99994 56h-.00012a56 56 0 0 1 -55.99994-56v-56l24-24h64z" fill="#ffceb6"/><path d="m152 32h-24a16 16 0 0 0 -16 16v32l40-20z" fill="#a36522"/><path d="m394.059 105.088h67.882v101.823h-67.882z" fill="#556c80" transform="matrix(.707 -.707 .707 .707 15.05 348.333)"/><path d="m368 144-16 40 48 48 40-16z" fill="#415769"/><path d="m279.431 214.059h113.137v67.882h-113.137z" fill="#556c80" transform="matrix(.707 -.707 .707 .707 -76.95 310.225)"/><path d="m180.118 313.373h135.765v45.255h-135.765z" fill="#415769" transform="matrix(.707 -.707 .707 .707 -164.95 273.775)"/><path d="m216 400-32 32h-64l64-64z" fill="#556c80"/><path d="m120 368-16 48h32l32-32-16-16z" fill="#ffceb6"/><path d="m264 384h64v32h-64z" fill="#718799"/><path d="m328 384-32-42.667-32 42.667z" fill="#415769"/><path d="m280 416h32v72h-32z" fill="#415769"/><path d="m168 24h32a24 24 0 0 1 24 24v24a0 0 0 0 1 0 0h-56a24 24 0 0 1 -24-24 24 24 0 0 1 24-24z" fill="#b1712c"/><path d="m197.714 245.714-29.714-29.714 32-40 16 24z" fill="#7dafff"/><path d="m138.286 245.714 29.714-29.714-32-40-16 24z" fill="#7dafff"/><circle cx="296" cy="328" fill="#718799" r="24"/><path d="m296 416-32 72h-32l32-72z" fill="#556c80"/><path d="m296 416 32 72h32l-32-72z" fill="#556c80"/><path d="m152 152h8a24.0275 24.0275 0 0 0 24-24v-8h-16v8a8.00917 8.00917 0 0 1 -8 8h-8z"/><circle cx="144" cy="104" r="8"/><circle cx="192" cy="104" r="8"/><path d="m421.65674 90.34326a8 8 0 0 0 -11.31348 0l-48 48a7.96751 7.96751 0 0 0 -1.7727 2.68994l-15.38868 38.47138-55.22 55.22a40.08672 40.08672 0 0 0 -10.78076-8.77533l-57.60058-32.00049-11.728-17.59192a63.857 63.857 0 0 0 22.14746-48.35684v-80a32.036 32.036 0 0 0 -32-32h-32a31.86 31.86 0 0 0 -21.13232 8h-18.86768a24.02687 24.02687 0 0 0 -24 24v80a63.857 63.857 0 0 0 22.14746 48.35681l-11.728 17.59192-57.60009 32a39.99184 39.99184 0 0 0 -19.68653 26.58545l-20.95511 97.78955a8.00094 8.00094 0 0 0 -.02246 3.24512l8 40a7.99916 7.99916 0 0 0 5.31494 6.02051l18.52979 6.17657v82.23407a7.99977 7.99977 0 0 0 8 8h304a7.9999 7.9999 0 0 0 7.31055-11.249l-31.31055-70.44875v-30.30225a7.95342 7.95342 0 0 0 -1.60693-4.79474l.00683-.00506-19.20825-25.611a31.96532 31.96532 0 0 0 10.92676-36.394l78.377-78.37708 38.47388-15.38952a7.97192 7.97192 0 0 0 2.6875-1.77179l48-48a7.99915 7.99915 0 0 0 0-11.31348zm-125.65674 253.65674a16 16 0 1 1 16-16 16.01833 16.01833 0 0 1 -16 16zm-24 64v-16h48v16zm-14.3999-28.7998.00683.00506a7.95342 7.95342 0 0 0 -1.60693 4.79474v24h-36.68652l2.34326-2.34326 53.44971-53.44974c.55285.47778 1.11718.94251 1.7019 1.3822zm-81.6001 60.7998v40h-16v-40zm4.68652-16h-41.373l44.68648-44.68652 20.68652 20.68652zm-48-16h-17.58715l10.6665-32h22.92065l8 8zm3.90088-218.45929 20.69239 25.86554-16.072 16.07239-12.21719-30.54264zm70.422 11.39526-12.21716 30.54267-16.072-16.07239 20.69239-25.86554zm-39.0094 2.25763-9.52466-11.90576a64.049 64.049 0 0 0 19.04932 0zm0 24.11988 20.32739 20.32745-11.75512 29.38788a8.00164 8.00164 0 0 0 -.57227 2.97119v84.68652l-8 8-8-8v-84.68652a8.00164 8.00164 0 0 0 -.57227-2.97119l-11.75512-29.38788zm96 100.68652a31.85 31.85 0 0 0 1.88159 10.80487l-49.88159 49.88165-20.68652-20.68652 84.68652-84.68652 12.84363 12.84362a32.043 32.043 0 0 0 -28.84363 31.8429zm19.31348-64 68.68652-68.68652 36.68652 36.68652-68.68652 68.68652zm78.07324-81.92676 9.53528-23.83777 54.84253 54.84253-23.83777 9.53528zm-82.78172 64.00836-12.26172 12.26166a7.99915 7.99915 0 0 0 0 11.31348l2.34324 2.34326-76.68652 76.68652v-67.146l28.05457-70.13636 51.35607 28.53138a24.09493 24.09493 0 0 1 7.19436 6.14606zm-110.605-214.0816h32a16.01833 16.01833 0 0 1 16 16v16h-48a16 16 0 0 1 0-32zm-48 16a8.00917 8.00917 0 0 1 8-8h9.01257a31.97172 31.97172 0 0 0 .66907 18.215l-17.68164 8.84066zm0 80v-43.05591l26.50928-13.25464a31.87545 31.87545 0 0 0 21.49072 8.31055h48v48a48 48 0 0 1 -96 0zm-87.83057 224.05566 20.60791-96.16943a23.99467 23.99467 0 0 1 11.812-15.95068l51.35607-28.53138 28.05459 70.13636v78.45947h-21.3335l-26.07714-19.55811 7.33007-51.31054-15.83886-2.2627-8 56a7.99966 7.99966 0 0 0 3.11963 7.53125l27.38708 20.54035-11.64685 34.94049-60.00635-20.00183zm31.83057 127.94434v-68.9007l37.47021 12.49006a7.99908 7.99908 0 0 0 2.52979.41064h12.68652l-2.34326 2.34326a7.99981 7.99981 0 0 0 5.65674 13.65674h24v40zm128-44.68652 11.31348-11.31348h48.37646l-24.88894 56h-34.801zm52.31006 44.68652 24.88894-56h14.491l-24.88916 56zm43.68994 0v-26.30225l8-18 8 18v26.30225zm45.19922 0-24.88916-56h14.491l24.88891 56zm-21.199-104h-32.00046l12.17724-16.23633a31.03961 31.03961 0 0 0 7.646 0zm127.99978-171.31348-60.68652-60.68652 36.68652-36.68652 60.68652 60.68652z"/></svg>